Patient4_TMGait_0pt6_02_left_30_GRF.mot
version=1
nRows=32
nColumns=19
inDegrees=no
endheader
time	F1x	F1y	F1z	M1x	M1y	M1z	F2x	F2y	F2z	M2x	M2y	M2z	EC1x	EC1y	EC1z	EC2x	EC2y	EC2z
36.66	-12.8757	5.3539	-0.57322	-1.8778	-1.7501	0.35236	-0.71749	756.7242	-98.2221	295.9072	110.2155	836.1485	-0.0592	0.0182	-0.0073	-0.0462	0.0165	0.9585
36.6724	-8.4547	4.6344	-0.22839	-1.6485	-1.2981	1.4804	-4.5167	751.1914	-90.5885	293.4241	103.3397	831.3211	-0.0592	0.0182	-0.0073	-0.0462	0.0165	0.9585
36.6847	-4.83	4.0845	0.01009	-1.4636	-0.89836	2.5266	-7.2618	746.4494	-83.9492	291.3045	96.9962	826.1231	-0.0592	0.0182	-0.0073	-0.0462	0.0165	0.9585
36.6971	-2.178	3.7322	0.15085	-1.3358	-0.58367	3.4146	-8.7456	743.452	-78.704	289.9267	91.5434	821.5527	-0.0592	0.0182	-0.0073	-0.0462	0.0165	0.9585
36.7094	-0.3897	3.5279	0.22499	-1.2565	-0.35936	4.0682	-8.9738	742.6691	-74.9838	289.4617	87.1492	818.2644	-0.0592	0.0182	-0.0073	-0.0462	0.0165	0.9585
36.7218	0.6473	3.4498	0.24988	-1.2167	-0.22446	4.5492	-8.1472	744.0811	-72.6027	289.8785	83.7298	816.4924	-0.0592	0.0182	-0.0073	-0.0462	0.0165	0.9585
36.7341	1.1572	3.3976	0.2559	-1.1868	-0.16361	4.7821	-6.5265	747.1439	-71.3319	290.9463	81.1717	815.9053	-0.0592	0.0182	-0.0073	-0.0462	0.0165	0.9585
36.7465	1.261	3.3022	0.25467	-1.1404	-0.16988	4.7924	-4.403	750.9881	-70.8592	292.3161	79.2848	815.8102	-0.0592	0.0182	-0.0073	-0.0462	0.0165	0.9585
36.7589	1.1528	3.0124	0.25502	-1.0286	-0.21163	4.4345	-2.0213	754.5882	-70.9102	293.5872	77.9013	815.3009	-0.0592	0.0182	-0.0073	-0.0462	0.0165	0.9585
36.7712	0.88583	2.4057	0.25592	-0.80406	-0.28205	3.647	0.41089	756.9826	-71.2089	294.3919	76.828	813.4857	-0.0592	0.0182	-0.0073	-0.0462	0.0165	0.9585
36.7836	0.58431	1.3171	0.24796	-0.40896	-0.34958	2.2541	2.7574	757.4634	-71.5353	294.464	75.8937	809.6953	-0.0592	0.0182	-0.0073	-0.0462	0.0165	0.9585
36.7959	0.27455	-0.36358	0.22504	0.2003	-0.40287	0.17474	4.9413	755.6871	-71.7284	293.6805	74.9542	803.6157	-0.0592	0.0182	-0.0073	-0.0462	0.0165	0.9585
36.8083	0.034622	-2.7064	0.1733	1.0448	-0.40265	-2.6864	6.9277	751.75	-71.6863	292.0856	73.9061	795.3733	-0.0592	0.0182	-0.0073	-0.0462	0.0165	0.9585
36.8206	-0.086942	-5.643	0.09011	2.0972	-0.32418	-6.2379	8.7306	746.1188	-71.3802	289.8611	72.7024	785.4589	-0.0592	0.0182	-0.0073	-0.0462	0.0165	0.9585
36.833	-0.013813	-8.8923	-0.051922	3.2506	-0.11015	-10.1558	10.3954	739.462	-70.8058	287.2634	71.3101	774.5607	-0.0592	0.0182	-0.0073	-0.0462	0.0165	0.9585
36.8454	0.33665	-11.8495	-0.2631	4.2858	0.28402	-13.7332	11.9838	732.4352	-69.9935	284.5411	69.7189	763.3611	-0.0592	0.0182	-0.0073	-0.0462	0.0165	0.9585
36.8577	1.0506	-13.4674	-0.58657	4.8268	0.93677	-15.7233	13.5466	725.4998	-68.9436	281.8619	67.8874	752.3459	-0.0592	0.0182	-0.0073	-0.0462	0.0165	0.9585
36.8701	2.2478	-12.178	-1.0255	4.3125	1.8967	-14.2719	15.0982	718.7816	-67.6623	279.2576	65.79	741.6696	-0.0592	0.0182	-0.0073	-0.0462	0.0165	0.9585
36.8824	3.9643	-5.785	-1.597	1.9658	3.1973	-6.766	16.6391	712.0297	-66.1434	276.6087	63.3978	731.1159	-0.0592	0.0182	-0.0073	-0.0462	0.0165	0.9585
36.8948	6.2297	8.3969	-2.246	-3.1643	4.782	9.9615	18.1426	704.6194	-64.4292	273.6469	60.7488	720.1125	-0.0592	0.0182	-0.0073	-0.0462	0.0165	0.9585
36.9071	8.8804	33.3849	-2.8926	-12.1338	6.4886	39.5153	19.5726	695.5925	-62.5496	269.9768	57.8881	707.7669	-0.0592	0.0182	-0.0073	-0.0462	0.0165	0.9585
36.9195	11.6019	71.8987	-3.3492	-25.8878	7.9688	85.1097	20.8715	683.6965	-60.5412	265.102	54.8863	692.908	-0.0592	0.0182	-0.0073	-0.0462	0.0165	0.9585
36.9319	13.6933	125.5031	-3.3505	-44.9418	8.6408	148.6529	21.95	667.4862	-58.3525	258.4676	51.7477	674.1738	-0.0592	0.0182	-0.0073	-0.0462	0.0165	0.9585
36.9442	14.1265	193.0887	-2.4844	-68.8529	7.6282	228.8669	22.7193	645.4477	-55.8799	249.5159	48.4313	650.1134	-0.0592	0.0182	-0.0073	-0.0462	0.0165	0.9585
36.9566	11.4217	269.1408	-0.21724	-95.5995	3.7732	319.3179	23.0943	616.318	-52.9241	237.8061	44.8031	619.5027	-0.0592	0.0182	-0.0073	-0.0462	0.0165	0.9585
36.9689	4.9798	343.2934	4.1439	-121.453	-3.9059	407.7544	23.068	579.499	-49.3174	223.1685	40.7402	581.7128	-0.0592	0.0182	-0.0073	-0.0462	0.0165	0.9585
36.9813	-3.6444	406.0024	11.0934	-143.0543	-15.2894	482.6584	22.7118	535.5753	-44.9895	205.8861	36.1908	537.2262	-0.0592	0.0182	-0.0073	-0.0462	0.0165	0.9585
36.9936	-13.0144	456.2837	19.1424	-160.0821	-28.1834	542.615	22.2263	486.3522	-40.1093	186.6713	31.2734	487.6803	-0.0592	0.0182	-0.0073	-0.0462	0.0165	0.9585
37.006	-21.6391	497.4012	27.2993	-173.7702	-40.855	591.2664	21.7781	433.899	-35.12	166.3132	26.3461	435.0097	-0.0592	0.0182	-0.0073	-0.0462	0.0165	0.9585
37.0184	-28.7004	533.3721	34.4059	-185.6219	-51.674	633.3624	21.4269	379.957	-30.3921	145.4615	21.7217	380.8709	-0.0592	0.0182	-0.0073	-0.0462	0.0165	0.9585
37.0307	-33.5806	566.3869	39.9157	-196.4854	-59.7649	671.4202	21.0278	325.9365	-26.0122	124.6444	17.5164	326.6627	-0.0592	0.0182	-0.0073	-0.0462	0.0165	0.9585
37.0431	-36.348	596.8379	43.5197	-206.542	-64.782	706.0568	20.3812	273.1337	-21.949	104.3473	13.7564	273.7082	-0.0592	0.0182	-0.0073	-0.0462	0.0165	0.9585
